# xmcd CD database file
#
# Track frame offsets:
#	150
#	14930
#	33925
#	49127
#	68972
#	84817
#	100397
#	113737
#	132345
#	144655
#	155892
#	169420
#
# Disc length: 2456 seconds
#
# Revision: 0
# Processed by: cddbd v1.4PL0 Copyright (c) Steve Scherf et al.
# Submitted via: CDex 1.50beta9
#
DISCID=ac09960c
DTITLE=Jilla Roberts - Jilla
DYEAR=2002
DGENRE=Country
TTITLE0=Put You Out Of My Misery
TTITLE1=You Can Count On Me
TTITLE2=Moment Of Doubt
TTITLE3=Lonesomeville
TTITLE4=Broken Heart Attack
TTITLE5=Chuck E's In Love
TTITLE6=Out Love
TTITLE7=Woodstock
TTITLE8=Cadillac Man
TTITLE9=I've Been On A Journey
TTITLE10=Movieland
TTITLE11=Live A Little
EXTD=YEAR: 2002
EXTT0=
EXTT1=
EXTT2=
EXTT3=
EXTT4=
EXTT5=
EXTT6=
EXTT7=
EXTT8=
EXTT9=
EXTT10=
EXTT11=
PLAYORDER=
